<svg width="5" height="10" viewBox="0 0 5 10" fill="none" xmlns="http://www.w3.org/2000/svg">
<path d="M0.667842 9.35283C0.512074 9.35313 0.361117 9.29888 0.241175 9.1995C0.104837 9.08646 0.0190769 8.92383 0.0028175 8.74748C-0.0134419 8.57112 0.0411362 8.39555 0.154509 8.25949L3.14118 4.68616L0.261175 1.10616C0.149328 0.968432 0.0969962 0.7918 0.115765 0.615373C0.134534 0.438945 0.222856 0.277277 0.361175 0.166161C0.50062 0.0434683 0.684927 -0.0154891 0.869691 0.00349357C1.05446 0.0224762 1.22292 0.117678 1.33451 0.266161L4.55451 4.26616C4.75672 4.51216 4.75672 4.86683 4.55451 5.11283L1.22118 9.11283C1.08553 9.27646 0.879999 9.36561 0.667842 9.35283Z" fill="#637381"/>
</svg>
